<svg width="24" height="24" viewBox="0 0 24 24" fill="none" xmlns="http://www.w3.org/2000/svg">
<mask id="path-1-outside-1_3981_2288" maskUnits="userSpaceOnUse" x="9" y="2" width="14" height="14" fill="black">
<rect fill="white" x="9" y="2" width="14" height="14"/>
<path fill-rule="evenodd" clip-rule="evenodd" d="M18.8652 11.5686C19.5981 10.7649 20.0449 9.69586 20.0449 8.52247C20.0449 6.02478 18.0202 4 15.5225 4C13.0248 4 11 6.02478 11 8.52247C11 11.0202 13.0248 13.0449 15.5225 13.0449C16.1112 13.0449 16.6736 12.9325 17.1894 12.7278C17.9516 13.2909 19.3127 13.3153 20.3804 13.193C20.4991 13.1794 20.4933 12.9538 20.3789 12.9192C19.4936 12.6517 19.0359 12.014 18.8652 11.5686Z"/>
</mask>
<path d="M18.8652 11.5686L17.3873 10.2211L16.5564 11.1325L16.9976 12.2842L18.8652 11.5686ZM17.1894 12.7278L18.3778 11.1192L17.4844 10.4592L16.4519 10.8688L17.1894 12.7278ZM20.3804 13.193L20.1527 11.206H20.1527L20.3804 13.193ZM20.3789 12.9192L20.9574 11.0047L20.9574 11.0047L20.3789 12.9192ZM18.0449 8.52247C18.0449 9.1781 17.7974 9.77131 17.3873 10.2211L20.3431 12.9161C21.3987 11.7584 22.0449 10.2136 22.0449 8.52247H18.0449ZM15.5225 6C16.9156 6 18.0449 7.12935 18.0449 8.52247H22.0449C22.0449 4.92021 19.1247 2 15.5225 2V6ZM13 8.52247C13 7.12935 14.1293 6 15.5225 6V2C11.9202 2 9 4.92021 9 8.52247H13ZM15.5225 11.0449C14.1293 11.0449 13 9.91559 13 8.52247H9C9 12.1247 11.9202 15.0449 15.5225 15.0449V11.0449ZM16.4519 10.8688C16.1669 10.9818 15.8545 11.0449 15.5225 11.0449V15.0449C16.3678 15.0449 17.1802 14.8831 17.9269 14.5869L16.4519 10.8688ZM16.001 14.3365C16.795 14.923 17.7355 15.1284 18.4565 15.2059C19.2156 15.2876 19.9783 15.2521 20.6081 15.18L20.1527 11.206C19.7148 11.2561 19.2631 11.2696 18.8842 11.2289C18.4671 11.184 18.346 11.0957 18.3778 11.1192L16.001 14.3365ZM20.6081 15.18C21.3437 15.0957 21.8713 14.6549 22.1548 14.1891C22.4093 13.7708 22.4714 13.3471 22.4668 13.0347C22.4601 12.5785 22.2289 11.389 20.9574 11.0047L19.8003 14.8337C18.6433 14.4841 18.4721 13.4246 18.4672 13.0932C18.4636 12.8433 18.512 12.4806 18.7378 12.1095C18.9926 11.6909 19.4764 11.2835 20.1527 11.206L20.6081 15.18ZM20.9574 11.0047C20.8559 10.9741 20.804 10.9324 20.7743 10.9025C20.7568 10.8848 20.744 10.8678 20.7355 10.8545C20.7263 10.8402 20.7268 10.8372 20.7329 10.8531L16.9976 12.2842C17.3447 13.1901 18.2127 14.354 19.8003 14.8337L20.9574 11.0047Z" fill="black" mask="url(#path-1-outside-1_3981_2288)"/>
<path d="M13.1065 11.1936C12.5789 11.0708 12.3955 10.7931 12.5564 10.3606L14.255 5.83475C14.3965 5.44492 14.7118 5.25 15.2008 5.25H15.7992C16.2882 5.25 16.6035 5.44492 16.745 5.83475L18.4436 10.3525C18.6045 10.7851 18.4211 11.0628 17.8935 11.1856L17.7873 11.2096C17.2662 11.3325 16.938 11.1749 16.8029 10.737L16.5616 9.928C16.5423 9.8746 16.4973 9.8479 16.4265 9.8479H14.5156C14.4448 9.8479 14.3998 9.8746 14.3805 9.928L14.1392 10.729C14.0105 11.1723 13.6824 11.3325 13.1548 11.2096L13.1065 11.1936ZM14.7472 8.70243C14.7408 8.72913 14.7536 8.74248 14.7858 8.74248H16.1563C16.1885 8.74248 16.2013 8.72913 16.1949 8.70243L15.5097 6.40348C15.4903 6.35008 15.4743 6.32338 15.4614 6.32338C15.4485 6.32338 15.4357 6.35008 15.4228 6.40348L14.7472 8.70243Z" fill="black"/>
<path fill-rule="evenodd" clip-rule="evenodd" d="M10.0224 8H6.4586C4.24947 8 2.4586 9.79087 2.4586 12V16.9461C2.4586 17.9889 2.8577 18.9386 3.5115 19.6506C3.10071 20.0742 2.50768 20.4557 1.68889 20.6211C1.57176 20.6447 1.56031 20.8521 1.67862 20.869C2.78624 21.0266 4.20731 21.087 5.3498 20.7904C5.70189 20.8918 6.07391 20.9461 6.45861 20.9461H11.4047C13.6138 20.9461 15.4047 19.1552 15.4047 16.9461V13.9992C14.2846 13.9802 13.2461 13.6263 12.3849 13.0334C12.2813 13.1693 12.0973 13.2372 11.8329 13.2372H11.4136C11.3463 13.2372 11.3023 13.2682 11.2816 13.3304C10.94 14.3139 10.4586 15.1576 9.83739 15.8616C9.82186 15.8824 9.82445 15.9005 9.84516 15.916C10.6165 16.4699 11.2557 16.8038 11.763 16.9176C12.1927 17.0108 12.3609 17.2515 12.2677 17.6398C12.1746 18.0332 11.9157 18.1755 11.4913 18.0668C10.5957 17.8339 9.76233 17.4042 8.99104 16.7779C8.94963 16.7468 8.90822 16.7468 8.86681 16.7779C8.07998 17.4042 7.2181 17.8468 6.28116 18.1056C5.86186 18.2195 5.60304 18.0849 5.50469 17.7019C5.41151 17.3136 5.57716 17.0729 6.00163 16.9798C6.62798 16.84 7.31386 16.4958 8.05928 15.9471C8.07998 15.9315 8.08257 15.9134 8.06704 15.8927C7.46657 15.2042 6.97222 14.3527 6.58398 13.3381C6.5581 13.2708 6.50892 13.2372 6.43645 13.2372H5.97057C5.53575 13.2372 5.31833 13.0534 5.31833 12.6859C5.31833 12.3184 5.53575 12.1346 5.97057 12.1346H8.47857C8.50445 12.1346 8.5148 12.1216 8.50963 12.0958C8.42681 11.7696 8.35175 11.5419 8.28445 11.4125C8.22233 11.2779 8.36986 11.12 8.72704 10.9388C9.08422 10.7576 9.34563 10.8741 9.51128 11.2882L9.53457 11.3426C9.70022 11.7567 9.60963 12.0181 9.2628 12.1268C9.23692 12.132 9.23692 12.1346 9.2628 12.1346H11.372C10.518 11.1655 9.99998 9.89322 9.99998 8.5C9.99998 8.33146 10.0076 8.16468 10.0224 8ZM8.92892 15.1085C8.94445 15.1292 8.95998 15.1292 8.97551 15.1085C9.42586 14.5908 9.77528 13.98 10.0237 13.276C10.0341 13.2501 10.0263 13.2372 10.0005 13.2372H7.75645C7.73057 13.2372 7.72281 13.2501 7.73316 13.276C8.02822 13.9696 8.42681 14.5805 8.92892 15.1085Z" fill="black"/>
</svg>
